<?xml version="1.0" encoding="UTF-8"?>
<svg id="Layer_1" data-name="Layer 1" xmlns="http://www.w3.org/2000/svg" viewBox="0 0 499.79 500">
  <defs>
    <style>
      .cls-1 {
        fill: none;
      }

      .cls-2 {
        fill: #00fff5;
      }

      .cls-3 {
        fill: #00d5cb;
      }

      .cls-4 {
        fill: #e56002;
      }

      .cls-5 {
        fill: #ffb600;
      }

      .cls-6 {
        fill: #ff2c05;
      }

      .cls-7 {
        fill: #ff7a68;
      }

      .cls-8 {
        fill: #ff6ce2;
      }

      .cls-9 {
        fill: #c52e9c;
      }

      .cls-10 {
        fill: #100f30;
      }
    </style>
  </defs>
  <path class="cls-5" d="m127.95,249.03c6.52-14.51,18.61-25.79,33.53-31.31-23.71-23.06-37.53-54.42-38.56-87.47-47.96,1.96-89.97,32.71-106.34,77.83-9.04,31.59,9.24,64.52,40.83,73.56,28.38,8.12,58.42-5.79,70.58-32.69l-.03.08Z"/>
  <path class="cls-1" d="m241.39,279.28v-.29c.02.1.01.19,0,.29Z"/>
  <path class="cls-4" d="m240.97,282.6c-.81,5.28-2.34,10.44-4.53,15.31-26.99,59.92-97.44,86.62-157.37,59.63-59.92-26.99-86.62-97.44-59.63-157.37-13.09,30.14.73,65.19,30.88,78.28,29.57,12.84,63.99-.2,77.62-29.42,6.52-14.51,18.61-25.79,33.53-31.31,20.76,20.32,47.83,32.96,76.74,35.81h0c2.53.24,5.09.4,7.68.5-.45,9.76-2.11,19.43-4.94,28.79.01-.06.01-.13.02-.22Z"/>
  <path class="cls-10" d="m250.78,254.16c-2.21,0-4.38-.06-6.52-.17-2.73,64.24-57.02,114.1-121.26,111.37-64.24-2.73-114.1-57.02-111.37-121.26,2.57-60.4,50.94-108.79,111.35-111.37-.11-2.16-.17-4.33-.17-6.52,0-1.68.07-3.31.12-4.99C52.34,123.98-2.66,183.45.1,254.05c2.76,70.6,62.22,125.6,132.82,122.84,66.74-2.61,120.24-56.11,122.84-122.85-1.67.07-3.31.12-4.98.12Z"/>
  <path class="cls-6" d="m249.16,127.96c14.51,6.52,25.79,18.61,31.31,33.53,23.06-23.71,54.42-37.53,87.47-38.56-1.95-47.98-32.72-90.02-77.86-106.39-31.59-9.04-64.52,9.24-73.56,40.83-8.12,28.38,5.79,58.42,32.69,70.58h-.04Z"/>
  <path class="cls-7" d="m215.61,240.97c-5.28-.81-10.44-2.34-15.31-4.53-59.92-26.99-86.62-97.44-59.63-157.37C167.66,19.15,238.11-7.55,298.03,19.44c-30.14-13.09-65.19.73-78.28,30.88-12.84,29.57.2,63.99,29.42,77.62,14.51,6.52,25.79,18.61,31.31,33.53-20.32,20.76-32.96,47.83-35.81,76.74h0c-.24,2.54-.4,5.1-.5,7.68-9.76-.45-19.43-2.11-28.79-4.94l.22.02Z"/>
  <path class="cls-10" d="m244.04,250.77c0-2.21.06-4.38.17-6.52-64.24-2.66-114.17-56.89-111.51-121.13,2.58-62.43,53.99-111.69,116.47-111.61,62.54,0,113.69,49.71,116.31,111.58,2.16-.11,4.33-.17,6.52-.17,1.68,0,3.31.07,4.99.12C374.35,54.85,318.04,0,249.17,0c-70.65.02-127.92,57.3-127.9,127.96.01,68.68,54.26,125.1,122.89,127.8,0-1.66-.11-3.33-.11-4.99Z"/>
  <path class="cls-9" d="m250.66,372.06c-14.51-6.52-25.79-18.61-31.31-33.53-23.07,23.66-54.43,37.43-87.46,38.4,1.87,48.04,32.64,90.16,77.84,106.54,31.59,9.04,64.52-9.24,73.56-40.83,8.12-28.38-5.79-58.42-32.69-70.58h.06Z"/>
  <path class="cls-8" d="m284.22,259.03c5.28.81,10.44,2.34,15.31,4.53,59.92,26.99,86.62,97.44,59.63,157.37-26.99,59.92-97.44,86.62-157.37,59.63h0c30.14,13.09,65.19-.73,78.28-30.88,12.84-29.57-.2-63.99-29.42-77.62-14.51-6.52-25.79-18.61-31.31-33.53,20.34-20.75,32.99-47.82,35.85-76.74h0c.24-2.54.4-5.1.5-7.68,9.76.45,19.43,2.11,28.79,4.94l-.27-.02Z"/>
  <path class="cls-10" d="m255.66,255.69c-3.76.94-7.69.94-11.45,0-1.01-3.75-1.01-7.7,0-11.45,3.7-1.3,7.74-1.3,11.45,0,1.45,3.68,1.45,7.77,0,11.45Z"/>
  <path class="cls-3" d="m371.84,250.88c-6.52,14.51-18.61,25.79-33.53,31.31,23.71,23.06,37.53,54.42,38.56,87.47,47.98-1.95,90.02-32.72,106.39-77.86,9.04-31.59-9.24-64.52-40.83-73.56-28.38-8.12-58.42,5.79-70.58,32.69v-.04Z"/>
  <path class="cls-1" d="m258.39,220.63v.29c-.02-.09-.01-.19,0-.29Z"/>
  <path class="cls-2" d="m258.81,217.32c.81-5.28,2.34-10.44,4.53-15.31,27-59.92,97.46-86.61,157.38-59.61,59.92,27,86.61,97.46,59.61,157.38,13.09-30.14-.73-65.19-30.88-78.28-29.57-12.84-63.99.2-77.62,29.42-6.52,14.51-18.61,25.79-33.53,31.31-20.76-20.32-47.83-32.96-76.74-35.81h0c-2-.2-4.01-.33-6.04-.43-.54,0,0-.99-.51-1.01,0-.65-1.1-.36-1.03-1.02.58-9.1,2.2-18.11,4.84-26.83,0,.03-.01.11-.02.19Z"/>
  <path class="cls-10" d="m249.03,245.75c2.21,0,4.35.09,6.52.2,2.71-64.24,56.98-114.12,121.22-111.42,64.24,2.71,114.12,56.98,111.42,121.22-2.55,60.43-50.94,108.85-111.37,111.41.11,2.16.17,4.33.17,6.52,0,1.68-.07,3.31-.12,4.99,70.6-2.76,125.6-62.22,122.84-132.82-2.76-70.6-62.22-125.6-132.82-122.84-66.74,2.61-120.25,56.12-122.84,122.86,1.67-.06,3.33-.12,5-.12Z"/>
  <path class="cls-10" d="m255.79,249.23c0,2.21-.06,4.38-.17,6.52,64.24,2.66,114.17,56.89,111.51,121.13-2.58,62.43-53.99,111.69-116.47,111.61-62.54,0-113.69-49.79-116.31-111.7-2.21.11-4.22.2-6.41.2-1.68,0-3.45-.1-5.1-.17,2.64,68.24,58.95,123.18,127.82,123.18,70.65-.03,127.91-57.33,127.88-127.98-.03-68.67-54.27-125.07-122.89-127.78.07,1.66.13,3.33.13,4.99Z"/>
</svg>