<svg width="786" height="254" viewBox="0 0 786 254" fill="none" xmlns="http://www.w3.org/2000/svg">
<path d="M235.579 5.11249H258.926V41.5258H294.999V5.05566H318.346V94.4132H294.999V60.1017H258.926V94.4132H235.579V5.11249Z" fill="#313332"/>
<path d="M401.285 94.4132L395.15 78.6208H356.521L350.272 94.4132H326.3L364.645 5.05566H388.617L426.11 94.4132H401.285V94.4132ZM363.565 60.7834H388.276L376.063 28.9146L363.565 60.7834Z" fill="#313332"/>
<path d="M486.041 26.6991C482.065 24.5404 478.088 23.4611 474.169 23.4611C469.681 23.4611 465.591 24.5972 461.841 26.8127C458.149 29.085 455.252 32.1525 453.093 36.129C450.991 40.1055 449.912 44.4797 449.912 49.3083C449.912 54.1369 450.991 58.5678 453.093 62.4875C455.195 66.464 458.149 69.5316 461.841 71.8039C465.534 74.0761 469.624 75.2123 474.169 75.2123C477.804 75.2123 481.667 74.3034 485.644 72.4288C489.62 70.5541 493.199 67.9978 496.323 64.7598L509.957 79.416C505.128 84.5287 499.334 88.5619 492.688 91.5727C486.041 94.5835 479.395 96.1173 472.862 96.1173C464 96.1173 456.047 94.0722 448.89 89.9821C441.732 85.892 436.165 80.3249 432.075 73.2809C427.985 66.2368 425.939 58.3406 425.939 49.5923C425.939 40.9577 428.041 33.1183 432.188 26.131C436.335 19.1437 442.073 13.6903 449.344 9.71376C456.615 5.73727 464.739 3.74902 473.771 3.74902C480.417 3.74902 486.95 5.11239 493.426 7.89593C499.902 10.6795 505.356 14.4288 509.843 19.2005L496.323 35.5042C493.483 31.7549 490.018 28.8578 486.041 26.6991Z" fill="#313332"/>
<path d="M605.847 94.413H577.955L554.494 59.7607L543.303 72.2582V94.413H519.955V5.1123H543.303V43.8547L576.819 5.1123H603.859L570.741 41.9233L605.847 94.413Z" fill="#313332"/>
<path d="M235.238 162.468H258.586V251.825H235.238V162.468Z" fill="#313332"/>
<path d="M275.912 162.468H299.259V231.943H337.093V251.825H275.912V162.468Z" fill="#313332"/>
<path d="M354.817 162.468H378.165V231.943H415.998V251.825H354.817V162.468Z" fill="#313332"/>
<path d="M429.007 162.468H452.355V251.825H429.007V162.468Z" fill="#313332"/>
<path d="M533.134 162.468H554.778V251.825H534.384L493.881 198.427V251.825H472.067V162.468H492.574L533.248 216.264L533.134 162.468Z" fill="#313332"/>
<path d="M641.92 167.069C649.248 171.046 655.042 176.556 659.246 183.487C663.45 190.474 665.551 198.256 665.551 206.948C665.551 215.696 663.45 223.592 659.246 230.636C655.042 237.681 649.248 243.248 641.92 247.338C634.592 251.428 626.355 253.473 617.265 253.473C608.176 253.473 599.939 251.485 592.611 247.395C585.283 243.361 579.489 237.794 575.285 230.693C571.081 223.592 568.979 215.696 568.979 206.948C568.979 198.256 571.081 190.474 575.285 183.487C579.489 176.499 585.283 171.046 592.611 167.069C599.939 163.093 608.176 161.048 617.265 161.048C626.355 161.048 634.535 163.036 641.92 167.069ZM605.166 184.282C601.359 186.554 598.405 189.735 596.19 193.769C593.975 197.802 592.895 202.233 592.895 207.062C592.895 212.004 594.031 216.492 596.304 220.525C598.576 224.558 601.53 227.739 605.279 230.068C609.028 232.398 613.119 233.59 617.493 233.59C621.924 233.59 625.957 232.398 629.649 230.068C633.342 227.739 636.239 224.558 638.398 220.525C640.5 216.492 641.579 212.004 641.579 207.062C641.579 202.233 640.5 197.802 638.398 193.769C636.296 189.735 633.342 186.554 629.649 184.282C625.957 182.01 621.867 180.817 617.493 180.817C613.062 180.817 608.972 181.953 605.166 184.282Z" fill="#313332"/>
<path d="M676.004 162.468H699.352V251.825H676.004V162.468Z" fill="#313332"/>
<path d="M761.839 182.464C756.443 180.703 751.898 179.794 748.262 179.794C745.365 179.794 743.093 180.306 741.446 181.385C739.798 182.464 738.946 183.998 738.946 186.043C738.946 187.975 739.685 189.622 741.105 190.929C742.525 192.235 744.343 193.314 746.445 194.11C748.546 194.905 751.728 195.984 755.875 197.234C762.067 198.995 767.179 200.813 771.213 202.574C775.246 204.335 778.711 207.119 781.608 210.811C784.505 214.504 785.926 219.332 785.926 225.297C785.926 231.262 784.335 236.317 781.211 240.521C778.086 244.725 773.769 247.906 768.259 250.008C762.748 252.11 756.67 253.189 749.967 253.189C742.582 253.189 735.197 251.883 727.869 249.326C720.541 246.713 714.178 243.191 708.838 238.703L717.871 220.468C722.358 224.445 727.698 227.74 733.89 230.296C740.025 232.852 745.536 234.102 750.251 234.102C753.716 234.102 756.5 233.477 758.488 232.17C760.476 230.921 761.498 229.046 761.498 226.547C761.498 224.502 760.76 222.797 759.283 221.434C757.806 220.071 755.931 218.991 753.659 218.196C751.387 217.401 748.262 216.435 744.172 215.356C738.037 213.651 732.981 211.947 729.005 210.186C725.028 208.425 721.563 205.812 718.723 202.29C715.882 198.768 714.462 194.053 714.462 188.202C714.462 182.692 715.939 177.863 718.836 173.659C721.79 169.512 725.937 166.274 731.334 164.059C736.731 161.787 742.979 160.65 750.137 160.65C756.613 160.65 762.976 161.559 769.281 163.377C775.587 165.195 781.097 167.638 785.869 170.705L777.064 189.338C772.292 186.554 767.236 184.282 761.839 182.464Z" fill="#313332"/>
<path d="M169.626 0V55.6141H121.567V101.685H48.7404V55.6141H0L32.2664 0H169.626Z" fill="#313332"/>
<path d="M169.626 196.324L138.609 251.939H0V196.324H48.7404V150.254H121.567V196.324H169.626Z" fill="#313332"/>
</svg>