<svg width="1470" height="819" viewBox="0 0 1470 819" fill="none" xmlns="http://www.w3.org/2000/svg">
    <path d="M847.223 42H769.223V52H847.223V42Z" fill="#FBDE56"/>
    <path d="M1085.55 63.9929H1063.19V84.9522H1085.55V63.9929Z" fill="#FBC587"/>
    <path d="M1107.92 43.0337H1085.55V63.9929H1107.92V43.0337Z" fill="#68C8BF"/>
    <path d="M1267.58 9.03078C1270.14 9.03078 1272.22 7.08641 1272.22 4.68789C1272.22 2.28936 1270.14 0.344971 1267.58 0.344971C1265.02 0.344971 1262.95 2.28936 1262.95 4.68789C1262.95 7.08641 1265.02 9.03078 1267.58 9.03078Z" fill="#B4E4DF"/>
    <path d="M1307.98 9.0309C1310.54 9.0309 1312.62 7.08653 1312.62 4.68801C1312.62 2.28949 1310.54 0.345093 1307.98 0.345093C1305.42 0.345093 1303.35 2.28949 1303.35 4.68801C1303.35 7.08653 1305.42 9.0309 1307.98 9.0309Z" fill="#B4E4DF"/>
    <path d="M1348.33 9.0309C1350.89 9.0309 1352.97 7.08653 1352.97 4.68801C1352.97 2.28949 1350.89 0.345093 1348.33 0.345093C1345.77 0.345093 1343.7 2.28949 1343.7 4.68801C1343.7 7.08653 1345.77 9.0309 1348.33 9.0309Z" fill="#B4E4DF"/>
    <path d="M1388.73 9.0309C1391.29 9.0309 1393.36 7.08653 1393.36 4.68801C1393.36 2.28949 1391.29 0.345093 1388.73 0.345093C1386.17 0.345093 1384.1 2.28949 1384.1 4.68801C1384.1 7.08653 1386.17 9.0309 1388.73 9.0309Z" fill="#B4E4DF"/>
    <path d="M1267.58 46.8897C1270.14 46.8897 1272.22 44.9453 1272.22 42.5467C1272.22 40.1482 1270.14 38.2039 1267.58 38.2039C1265.02 38.2039 1262.95 40.1482 1262.95 42.5467C1262.95 44.9453 1265.02 46.8897 1267.58 46.8897Z" fill="#B4E4DF"/>
    <path d="M1307.98 46.8897C1310.54 46.8897 1312.62 44.9453 1312.62 42.5467C1312.62 40.1482 1310.54 38.2039 1307.98 38.2039C1305.42 38.2039 1303.35 40.1482 1303.35 42.5467C1303.35 44.9453 1305.42 46.8897 1307.98 46.8897Z" fill="#B4E4DF"/>
    <path d="M1348.33 46.8897C1350.89 46.8897 1352.97 44.9453 1352.97 42.5467C1352.97 40.1482 1350.89 38.2039 1348.33 38.2039C1345.77 38.2039 1343.7 40.1482 1343.7 42.5467C1343.7 44.9453 1345.77 46.8897 1348.33 46.8897Z" fill="#B4E4DF"/>
    <path d="M1388.73 46.8897C1391.29 46.8897 1393.36 44.9453 1393.36 42.5467C1393.36 40.1482 1391.29 38.2039 1388.73 38.2039C1386.17 38.2039 1384.1 40.1482 1384.1 42.5467C1384.1 44.9453 1386.17 46.8897 1388.73 46.8897Z" fill="#B4E4DF"/>
    <path d="M1267.58 84.7015C1270.14 84.7015 1272.22 82.7571 1272.22 80.3585C1272.22 77.96 1270.14 76.0156 1267.58 76.0156C1265.02 76.0156 1262.95 77.96 1262.95 80.3585C1262.95 82.7571 1265.02 84.7015 1267.58 84.7015Z" fill="#B4E4DF"/>
    <path d="M1307.98 84.7015C1310.54 84.7015 1312.62 82.7571 1312.62 80.3585C1312.62 77.96 1310.54 76.0156 1307.98 76.0156C1305.42 76.0156 1303.35 77.96 1303.35 80.3585C1303.35 82.7571 1305.42 84.7015 1307.98 84.7015Z" fill="#B4E4DF"/>
    <path d="M1348.33 84.7015C1350.89 84.7015 1352.97 82.7571 1352.97 80.3585C1352.97 77.96 1350.89 76.0156 1348.33 76.0156C1345.77 76.0156 1343.7 77.96 1343.7 80.3585C1343.7 82.7571 1345.77 84.7015 1348.33 84.7015Z" fill="#B4E4DF"/>
    <path d="M1388.73 84.7015C1391.29 84.7015 1393.36 82.7571 1393.36 80.3585C1393.36 77.96 1391.29 76.0156 1388.73 76.0156C1386.17 76.0156 1384.1 77.96 1384.1 80.3585C1384.1 82.7571 1386.17 84.7015 1388.73 84.7015Z" fill="#B4E4DF"/>
    <path d="M1267.58 122.56C1270.14 122.56 1272.22 120.616 1272.22 118.217C1272.22 115.819 1270.14 113.874 1267.58 113.874C1265.02 113.874 1262.95 115.819 1262.95 118.217C1262.95 120.616 1265.02 122.56 1267.58 122.56Z" fill="#B4E4DF"/>
    <path d="M1307.98 122.56C1310.54 122.56 1312.62 120.616 1312.62 118.217C1312.62 115.819 1310.54 113.874 1307.98 113.874C1305.42 113.874 1303.35 115.819 1303.35 118.217C1303.35 120.616 1305.42 122.56 1307.98 122.56Z" fill="#B4E4DF"/>
    <path d="M1348.33 122.56C1350.89 122.56 1352.97 120.616 1352.97 118.217C1352.97 115.819 1350.89 113.874 1348.33 113.874C1345.77 113.874 1343.7 115.819 1343.7 118.217C1343.7 120.616 1345.77 122.56 1348.33 122.56Z" fill="#B4E4DF"/>
    <path d="M1388.73 122.56C1391.29 122.56 1393.36 120.616 1393.36 118.217C1393.36 115.819 1391.29 113.874 1388.73 113.874C1386.17 113.874 1384.1 115.819 1384.1 118.217C1384.1 120.616 1386.17 122.56 1388.73 122.56Z" fill="#B4E4DF"/>
    <path d="M514.112 671.394C516.672 671.394 518.747 669.449 518.747 667.051C518.747 664.652 516.672 662.708 514.112 662.708C511.553 662.708 509.478 664.652 509.478 667.051C509.478 669.449 511.553 671.394 514.112 671.394Z" fill="#FBA036"/>
    <path d="M554.512 671.394C557.072 671.394 559.146 669.449 559.146 667.051C559.146 664.652 557.072 662.708 554.512 662.708C551.953 662.708 549.878 664.652 549.878 667.051C549.878 669.449 551.953 671.394 554.512 671.394Z" fill="#FBA036"/>
    <path d="M594.861 671.394C597.42 671.394 599.495 669.449 599.495 667.051C599.495 664.652 597.42 662.708 594.861 662.708C592.301 662.708 590.227 664.652 590.227 667.051C590.227 669.449 592.301 671.394 594.861 671.394Z" fill="#FBA036"/>
    <path d="M635.26 671.394C637.82 671.394 639.895 669.449 639.895 667.051C639.895 664.652 637.82 662.708 635.26 662.708C632.701 662.708 630.626 664.652 630.626 667.051C630.626 669.449 632.701 671.394 635.26 671.394Z" fill="#FBA036"/>
    <path d="M514.112 709.253C516.672 709.253 518.747 707.308 518.747 704.91C518.747 702.511 516.672 700.567 514.112 700.567C511.553 700.567 509.478 702.511 509.478 704.91C509.478 707.308 511.553 709.253 514.112 709.253Z" fill="#FBA036"/>
    <path d="M554.512 709.253C557.072 709.253 559.146 707.308 559.146 704.91C559.146 702.511 557.072 700.567 554.512 700.567C551.953 700.567 549.878 702.511 549.878 704.91C549.878 707.308 551.953 709.253 554.512 709.253Z" fill="#FBA036"/>
    <path d="M594.861 709.253C597.42 709.253 599.495 707.308 599.495 704.91C599.495 702.511 597.42 700.567 594.861 700.567C592.301 700.567 590.227 702.511 590.227 704.91C590.227 707.308 592.301 709.253 594.861 709.253Z" fill="#FBA036"/>
    <path d="M635.26 709.253C637.82 709.253 639.895 707.308 639.895 704.91C639.895 702.511 637.82 700.567 635.26 700.567C632.701 700.567 630.626 702.511 630.626 704.91C630.626 707.308 632.701 709.253 635.26 709.253Z" fill="#FBA036"/>
    <path d="M514.112 747.064C516.672 747.064 518.747 745.12 518.747 742.721C518.747 740.323 516.672 738.378 514.112 738.378C511.553 738.378 509.478 740.323 509.478 742.721C509.478 745.12 511.553 747.064 514.112 747.064Z" fill="#FBA036"/>
    <path d="M554.512 747.064C557.072 747.064 559.146 745.12 559.146 742.721C559.146 740.323 557.072 738.378 554.512 738.378C551.953 738.378 549.878 740.323 549.878 742.721C549.878 745.12 551.953 747.064 554.512 747.064Z" fill="#FBA036"/>
    <path d="M594.861 747.064C597.42 747.064 599.495 745.12 599.495 742.721C599.495 740.323 597.42 738.378 594.861 738.378C592.301 738.378 590.227 740.323 590.227 742.721C590.227 745.12 592.301 747.064 594.861 747.064Z" fill="#FBA036"/>
    <path d="M635.26 747.064C637.82 747.064 639.895 745.12 639.895 742.721C639.895 740.323 637.82 738.378 635.26 738.378C632.701 738.378 630.626 740.323 630.626 742.721C630.626 745.12 632.701 747.064 635.26 747.064Z" fill="#FBA036"/>
    <path d="M514.112 784.923C516.672 784.923 518.747 782.979 518.747 780.58C518.747 778.182 516.672 776.237 514.112 776.237C511.553 776.237 509.478 778.182 509.478 780.58C509.478 782.979 511.553 784.923 514.112 784.923Z" fill="#FBA036"/>
    <path d="M554.512 784.923C557.072 784.923 559.146 782.979 559.146 780.58C559.146 778.182 557.072 776.237 554.512 776.237C551.953 776.237 549.878 778.182 549.878 780.58C549.878 782.979 551.953 784.923 554.512 784.923Z" fill="#FBA036"/>
    <path d="M594.861 784.923C597.42 784.923 599.495 782.979 599.495 780.58C599.495 778.182 597.42 776.237 594.861 776.237C592.301 776.237 590.227 778.182 590.227 780.58C590.227 782.979 592.301 784.923 594.861 784.923Z" fill="#FBA036"/>
    <path d="M635.26 784.923C637.82 784.923 639.895 782.979 639.895 780.58C639.895 778.182 637.82 776.237 635.26 776.237C632.701 776.237 630.626 778.182 630.626 780.58C630.626 782.979 632.701 784.923 635.26 784.923Z" fill="#FBA036"/>
    <path d="M1409.22 360H1330.22V370H1409.22V360Z" fill="#FBA036"/>
    <path d="M1261.77 235.284C1264.85 235.284 1267.36 232.938 1267.36 230.045C1267.36 227.151 1264.85 224.805 1261.77 224.805C1258.68 224.805 1256.17 227.151 1256.17 230.045C1256.17 232.938 1258.68 235.284 1261.77 235.284Z" stroke="#FBC587" stroke-width="7.17359" stroke-miterlimit="10"/>
    <path d="M1261.77 277.203C1264.85 277.203 1267.36 274.857 1267.36 271.963C1267.36 269.069 1264.85 266.723 1261.77 266.723C1258.68 266.723 1256.17 269.069 1256.17 271.963C1256.17 274.857 1258.68 277.203 1261.77 277.203Z" stroke="#FBC587" stroke-width="7.17359" stroke-miterlimit="10"/>
    <path d="M1261.77 319.122C1264.85 319.122 1267.36 316.776 1267.36 313.882C1267.36 310.988 1264.85 308.642 1261.77 308.642C1258.68 308.642 1256.17 310.988 1256.17 313.882C1256.17 316.776 1258.68 319.122 1261.77 319.122Z" stroke="#FBC587" stroke-width="7.17359" stroke-miterlimit="10"/>
    <path d="M218.619 620.859C215.531 620.859 213.027 618.514 213.027 615.62C213.027 612.726 215.531 610.38 218.619 610.38C221.707 610.38 224.21 612.726 224.21 615.62C224.21 618.514 221.707 620.859 218.619 620.859Z" stroke="#FBC587" stroke-width="7.17359" stroke-miterlimit="10"/>
    <path d="M263.35 620.859C260.262 620.859 257.759 618.514 257.759 615.62C257.759 612.726 260.262 610.38 263.35 610.38C266.439 610.38 268.942 612.726 268.942 615.62C268.942 618.514 266.439 620.859 263.35 620.859Z" stroke="#FBC587" stroke-width="7.17359" stroke-miterlimit="10"/>
    <path d="M308.082 620.859C304.994 620.859 302.491 618.514 302.491 615.62C302.491 612.726 304.994 610.38 308.082 610.38C311.17 610.38 313.674 612.726 313.674 615.62C313.674 618.514 311.17 620.859 308.082 620.859Z" stroke="#FBC587" stroke-width="7.17359" stroke-miterlimit="10"/>
    <path d="M269.223 679H0.223134H269.223Z" stroke="#95D8D2" stroke-width="7.17359" stroke-miterlimit="10"/>
    <path d="M111.298 502.585L88.9324 502.585L88.9324 481.625L111.298 481.625L111.298 502.585Z" fill="#68C8BF"/>
    <path d="M133.664 523.544L111.298 523.544L111.298 502.585L133.664 502.585L133.664 523.544Z" fill="#FBC587"/>
    <path d="M111.298 544.2L88.9324 544.2L88.9324 523.241L111.298 523.241L111.298 544.2Z" fill="#FBDE56"/>
    <path d="M71.4982 308.642C74.5863 308.642 77.0896 310.988 77.0896 313.882C77.0896 316.776 74.5863 319.122 71.4982 319.122C68.4101 319.122 65.9067 316.776 65.9067 313.882C65.9067 310.988 68.4101 308.642 71.4982 308.642Z" stroke="#A2DDD7" stroke-width="7.17359" stroke-miterlimit="10"/>
    <path d="M71.4982 266.723C74.5863 266.723 77.0896 269.069 77.0896 271.963C77.0896 274.857 74.5863 277.203 71.4982 277.203C68.4101 277.203 65.9067 274.857 65.9067 271.963C65.9067 269.069 68.4101 266.723 71.4982 266.723Z" stroke="#A2DDD7" stroke-width="7.17359" stroke-miterlimit="10"/>
    <path d="M71.4982 224.805C74.5863 224.805 77.0896 227.151 77.0896 230.045C77.0896 232.939 74.5863 235.284 71.4982 235.284C68.4101 235.284 65.9067 232.939 65.9067 230.045C65.9067 227.151 68.4101 224.805 71.4982 224.805Z" stroke="#A2DDD7" stroke-width="7.17359" stroke-miterlimit="10"/>
    <path d="M1451.28 515.686C1448.72 515.686 1446.65 513.741 1446.65 511.343C1446.65 508.944 1448.72 507 1451.28 507C1453.84 507 1455.91 508.944 1455.91 511.343C1455.91 513.741 1453.84 515.686 1451.28 515.686Z" fill="#FCE891"/>
    <path d="M1410.88 515.686C1408.32 515.686 1406.25 513.741 1406.25 511.343C1406.25 508.944 1408.32 507 1410.88 507C1413.44 507 1415.51 508.944 1415.51 511.343C1415.51 513.741 1413.44 515.686 1410.88 515.686Z" fill="#FCE891"/>
    <path d="M1370.53 515.686C1367.97 515.686 1365.9 513.741 1365.9 511.343C1365.9 508.944 1367.97 507 1370.53 507C1373.09 507 1375.17 508.944 1375.17 511.343C1375.17 513.741 1373.09 515.686 1370.53 515.686Z" fill="#FCE891"/>
    <path d="M1330.13 515.686C1327.57 515.686 1325.5 513.741 1325.5 511.343C1325.5 508.944 1327.57 507 1330.13 507C1332.69 507 1334.77 508.944 1334.77 511.343C1334.77 513.741 1332.69 515.686 1330.13 515.686Z" fill="#FCE891"/>
    <path d="M1289.78 515.686C1287.22 515.686 1285.15 513.741 1285.15 511.343C1285.15 508.944 1287.22 507 1289.78 507C1292.34 507 1294.42 508.944 1294.42 511.343C1294.42 513.741 1292.34 515.686 1289.78 515.686Z" fill="#FCE891"/>
    <path d="M1249.38 515.686C1246.82 515.686 1244.75 513.741 1244.75 511.343C1244.75 508.944 1246.82 507 1249.38 507C1251.94 507 1254.02 508.944 1254.02 511.343C1254.02 513.741 1251.94 515.686 1249.38 515.686Z" fill="#FCE891"/>
    <path d="M1209.03 515.686C1206.47 515.686 1204.4 513.741 1204.4 511.343C1204.4 508.944 1206.47 507 1209.03 507C1211.59 507 1213.67 508.944 1213.67 511.343C1213.67 513.741 1211.59 515.686 1209.03 515.686Z" fill="#FCE891"/>
    <path d="M1168.63 515.686C1166.07 515.686 1164 513.741 1164 511.343C1164 508.944 1166.07 507 1168.63 507C1171.19 507 1173.27 508.944 1173.27 511.343C1173.27 513.741 1171.19 515.686 1168.63 515.686Z" fill="#FCE891"/>
    <path d="M1451.28 553.545C1448.72 553.545 1446.65 551.6 1446.65 549.202C1446.65 546.803 1448.72 544.859 1451.28 544.859C1453.84 544.859 1455.91 546.803 1455.91 549.202C1455.91 551.6 1453.84 553.545 1451.28 553.545Z" fill="#FCE891"/>
    <path d="M1410.88 553.545C1408.32 553.545 1406.25 551.6 1406.25 549.202C1406.25 546.803 1408.32 544.859 1410.88 544.859C1413.44 544.859 1415.51 546.803 1415.51 549.202C1415.51 551.6 1413.44 553.545 1410.88 553.545Z" fill="#FCE891"/>
    <path d="M1370.53 553.545C1367.97 553.545 1365.9 551.6 1365.9 549.202C1365.9 546.803 1367.97 544.859 1370.53 544.859C1373.09 544.859 1375.17 546.803 1375.17 549.202C1375.17 551.6 1373.09 553.545 1370.53 553.545Z" fill="#FCE891"/>
    <path d="M1330.13 553.545C1327.57 553.545 1325.5 551.6 1325.5 549.202C1325.5 546.803 1327.57 544.859 1330.13 544.859C1332.69 544.859 1334.77 546.803 1334.77 549.202C1334.77 551.6 1332.69 553.545 1330.13 553.545Z" fill="#FCE891"/>
    <path d="M1289.78 553.545C1287.22 553.545 1285.15 551.6 1285.15 549.202C1285.15 546.803 1287.22 544.859 1289.78 544.859C1292.34 544.859 1294.42 546.803 1294.42 549.202C1294.42 551.6 1292.34 553.545 1289.78 553.545Z" fill="#FCE891"/>
    <path d="M1249.38 553.545C1246.82 553.545 1244.75 551.6 1244.75 549.202C1244.75 546.803 1246.82 544.859 1249.38 544.859C1251.94 544.859 1254.02 546.803 1254.02 549.202C1254.02 551.6 1251.94 553.545 1249.38 553.545Z" fill="#FCE891"/>
    <path d="M1209.03 553.545C1206.47 553.545 1204.4 551.6 1204.4 549.202C1204.4 546.803 1206.47 544.859 1209.03 544.859C1211.59 544.859 1213.67 546.803 1213.67 549.202C1213.67 551.6 1211.59 553.545 1209.03 553.545Z" fill="#FCE891"/>
    <path d="M1168.63 553.545C1166.07 553.545 1164 551.6 1164 549.202C1164 546.803 1166.07 544.859 1168.63 544.859C1171.19 544.859 1173.27 546.803 1173.27 549.202C1173.27 551.6 1171.19 553.545 1168.63 553.545Z" fill="#FCE891"/>
    <path d="M1451.28 591.356C1448.72 591.356 1446.65 589.412 1446.65 587.013C1446.65 584.615 1448.72 582.671 1451.28 582.671C1453.84 582.671 1455.91 584.615 1455.91 587.013C1455.91 589.412 1453.84 591.356 1451.28 591.356Z" fill="#FCE891"/>
    <path d="M1410.88 591.356C1408.32 591.356 1406.25 589.412 1406.25 587.013C1406.25 584.615 1408.32 582.671 1410.88 582.671C1413.44 582.671 1415.51 584.615 1415.51 587.013C1415.51 589.412 1413.44 591.356 1410.88 591.356Z" fill="#FCE891"/>
    <path d="M1370.53 591.356C1367.97 591.356 1365.9 589.412 1365.9 587.013C1365.9 584.615 1367.97 582.671 1370.53 582.671C1373.09 582.671 1375.17 584.615 1375.17 587.013C1375.17 589.412 1373.09 591.356 1370.53 591.356Z" fill="#FCE891"/>
    <path d="M1330.13 591.356C1327.57 591.356 1325.5 589.412 1325.5 587.013C1325.5 584.615 1327.57 582.671 1330.13 582.671C1332.69 582.671 1334.77 584.615 1334.77 587.013C1334.77 589.412 1332.69 591.356 1330.13 591.356Z" fill="#FCE891"/>
    <path d="M1289.78 591.356C1287.22 591.356 1285.15 589.412 1285.15 587.013C1285.15 584.615 1287.22 582.671 1289.78 582.671C1292.34 582.671 1294.42 584.615 1294.42 587.013C1294.42 589.412 1292.34 591.356 1289.78 591.356Z" fill="#FCE891"/>
    <path d="M1249.38 591.356C1246.82 591.356 1244.75 589.412 1244.75 587.013C1244.75 584.615 1246.82 582.671 1249.38 582.671C1251.94 582.671 1254.02 584.615 1254.02 587.013C1254.02 589.412 1251.94 591.356 1249.38 591.356Z" fill="#FCE891"/>
    <path d="M1209.03 591.356C1206.47 591.356 1204.4 589.412 1204.4 587.013C1204.4 584.615 1206.47 582.671 1209.03 582.671C1211.59 582.671 1213.67 584.615 1213.67 587.013C1213.67 589.412 1211.59 591.356 1209.03 591.356Z" fill="#FCE891"/>
    <path d="M1168.63 591.356C1166.07 591.356 1164 589.412 1164 587.013C1164 584.615 1166.07 582.671 1168.63 582.671C1171.19 582.671 1173.27 584.615 1173.27 587.013C1173.27 589.412 1171.19 591.356 1168.63 591.356Z" fill="#FCE891"/>
    <path d="M1451.28 629.215C1448.72 629.215 1446.65 627.271 1446.65 624.872C1446.65 622.474 1448.72 620.529 1451.28 620.529C1453.84 620.529 1455.91 622.474 1455.91 624.872C1455.91 627.271 1453.84 629.215 1451.28 629.215Z" fill="#FCE891"/>
    <path d="M1410.88 629.215C1408.32 629.215 1406.25 627.271 1406.25 624.872C1406.25 622.474 1408.32 620.529 1410.88 620.529C1413.44 620.529 1415.51 622.474 1415.51 624.872C1415.51 627.271 1413.44 629.215 1410.88 629.215Z" fill="#FCE891"/>
    <path d="M1370.53 629.215C1367.97 629.215 1365.9 627.271 1365.9 624.872C1365.9 622.474 1367.97 620.529 1370.53 620.529C1373.09 620.529 1375.17 622.474 1375.17 624.872C1375.17 627.271 1373.09 629.215 1370.53 629.215Z" fill="#FCE891"/>
    <path d="M1330.13 629.215C1327.57 629.215 1325.5 627.271 1325.5 624.872C1325.5 622.474 1327.57 620.529 1330.13 620.529C1332.69 620.529 1334.77 622.474 1334.77 624.872C1334.77 627.271 1332.69 629.215 1330.13 629.215Z" fill="#FCE891"/>
    <path d="M1289.78 629.215C1287.22 629.215 1285.15 627.271 1285.15 624.872C1285.15 622.474 1287.22 620.529 1289.78 620.529C1292.34 620.529 1294.42 622.474 1294.42 624.872C1294.42 627.271 1292.34 629.215 1289.78 629.215Z" fill="#FCE891"/>
    <path d="M1249.38 629.215C1246.82 629.215 1244.75 627.271 1244.75 624.872C1244.75 622.474 1246.82 620.529 1249.38 620.529C1251.94 620.529 1254.02 622.474 1254.02 624.872C1254.02 627.271 1251.94 629.215 1249.38 629.215Z" fill="#FCE891"/>
    <path d="M1209.03 629.215C1206.47 629.215 1204.4 627.271 1204.4 624.872C1204.4 622.474 1206.47 620.529 1209.03 620.529C1211.59 620.529 1213.67 622.474 1213.67 624.872C1213.67 627.271 1211.59 629.215 1209.03 629.215Z" fill="#FCE891"/>
    <path d="M1168.63 629.215C1166.07 629.215 1164 627.271 1164 624.872C1164 622.474 1166.07 620.529 1168.63 620.529C1171.19 620.529 1173.27 622.474 1173.27 624.872C1173.27 627.271 1171.19 629.215 1168.63 629.215Z" fill="#FCE891"/>
    <path d="M1451.28 667.027C1448.72 667.027 1446.65 665.082 1446.65 662.684C1446.65 660.285 1448.72 658.341 1451.28 658.341C1453.84 658.341 1455.91 660.285 1455.91 662.684C1455.91 665.082 1453.84 667.027 1451.28 667.027Z" fill="#FCE891"/>
    <path d="M1410.88 667.027C1408.32 667.027 1406.25 665.082 1406.25 662.684C1406.25 660.285 1408.32 658.341 1410.88 658.341C1413.44 658.341 1415.51 660.285 1415.51 662.684C1415.51 665.082 1413.44 667.027 1410.88 667.027Z" fill="#FCE891"/>
    <path d="M1370.53 667.027C1367.97 667.027 1365.9 665.082 1365.9 662.684C1365.9 660.285 1367.97 658.341 1370.53 658.341C1373.09 658.341 1375.17 660.285 1375.17 662.684C1375.17 665.082 1373.09 667.027 1370.53 667.027Z" fill="#FCE891"/>
    <path d="M1330.13 667.027C1327.57 667.027 1325.5 665.082 1325.5 662.684C1325.5 660.285 1327.57 658.341 1330.13 658.341C1332.69 658.341 1334.77 660.285 1334.77 662.684C1334.77 665.082 1332.69 667.027 1330.13 667.027Z" fill="#FCE891"/>
    <path d="M1289.78 667.027C1287.22 667.027 1285.15 665.082 1285.15 662.684C1285.15 660.285 1287.22 658.341 1289.78 658.341C1292.34 658.341 1294.42 660.285 1294.42 662.684C1294.42 665.082 1292.34 667.027 1289.78 667.027Z" fill="#FCE891"/>
    <path d="M1249.38 667.027C1246.82 667.027 1244.75 665.082 1244.75 662.684C1244.75 660.285 1246.82 658.341 1249.38 658.341C1251.94 658.341 1254.02 660.285 1254.02 662.684C1254.02 665.082 1251.94 667.027 1249.38 667.027Z" fill="#FCE891"/>
    <path d="M1209.03 667.027C1206.47 667.027 1204.4 665.082 1204.4 662.684C1204.4 660.285 1206.47 658.341 1209.03 658.341C1211.59 658.341 1213.67 660.285 1213.67 662.684C1213.67 665.082 1211.59 667.027 1209.03 667.027Z" fill="#FCE891"/>
    <path d="M1168.63 667.027C1166.07 667.027 1164 665.082 1164 662.684C1164 660.285 1166.07 658.341 1168.63 658.341C1171.19 658.341 1173.27 660.285 1173.27 662.684C1173.27 665.082 1171.19 667.027 1168.63 667.027Z" fill="#FCE891"/>
    <path d="M1451.28 704.886C1448.72 704.886 1446.65 702.941 1446.65 700.543C1446.65 698.144 1448.72 696.2 1451.28 696.2C1453.84 696.2 1455.91 698.144 1455.91 700.543C1455.91 702.941 1453.84 704.886 1451.28 704.886Z" fill="#FCE891"/>
    <path d="M1410.88 704.886C1408.32 704.886 1406.25 702.941 1406.25 700.543C1406.25 698.144 1408.32 696.2 1410.88 696.2C1413.44 696.2 1415.51 698.144 1415.51 700.543C1415.51 702.941 1413.44 704.886 1410.88 704.886Z" fill="#FCE891"/>
    <path d="M1370.53 704.886C1367.97 704.886 1365.9 702.941 1365.9 700.543C1365.9 698.144 1367.97 696.2 1370.53 696.2C1373.09 696.2 1375.17 698.144 1375.17 700.543C1375.17 702.941 1373.09 704.886 1370.53 704.886Z" fill="#FCE891"/>
    <path d="M1330.13 704.886C1327.57 704.886 1325.5 702.941 1325.5 700.543C1325.5 698.144 1327.57 696.2 1330.13 696.2C1332.69 696.2 1334.77 698.144 1334.77 700.543C1334.77 702.941 1332.69 704.886 1330.13 704.886Z" fill="#FCE891"/>
    <path d="M1289.78 704.886C1287.22 704.886 1285.15 702.941 1285.15 700.543C1285.15 698.144 1287.22 696.2 1289.78 696.2C1292.34 696.2 1294.42 698.144 1294.42 700.543C1294.42 702.941 1292.34 704.886 1289.78 704.886Z" fill="#FCE891"/>
    <path d="M1249.38 704.886C1246.82 704.886 1244.75 702.941 1244.75 700.543C1244.75 698.144 1246.82 696.2 1249.38 696.2C1251.94 696.2 1254.02 698.144 1254.02 700.543C1254.02 702.941 1251.94 704.886 1249.38 704.886Z" fill="#FCE891"/>
    <path d="M1209.03 704.886C1206.47 704.886 1204.4 702.941 1204.4 700.543C1204.4 698.144 1206.47 696.2 1209.03 696.2C1211.59 696.2 1213.67 698.144 1213.67 700.543C1213.67 702.941 1211.59 704.886 1209.03 704.886Z" fill="#FCE891"/>
    <path d="M1168.63 704.886C1166.07 704.886 1164 702.941 1164 700.543C1164 698.144 1166.07 696.2 1168.63 696.2C1171.19 696.2 1173.27 698.144 1173.27 700.543C1173.27 702.941 1171.19 704.886 1168.63 704.886Z" fill="#FCE891"/>
    <path d="M1451.28 742.697C1448.72 742.697 1446.65 740.753 1446.65 738.354C1446.65 735.956 1448.72 734.012 1451.28 734.012C1453.84 734.012 1455.91 735.956 1455.91 738.354C1455.91 740.753 1453.84 742.697 1451.28 742.697Z" fill="#FCE891"/>
    <path d="M1410.88 742.697C1408.32 742.697 1406.25 740.753 1406.25 738.354C1406.25 735.956 1408.32 734.012 1410.88 734.012C1413.44 734.012 1415.51 735.956 1415.51 738.354C1415.51 740.753 1413.44 742.697 1410.88 742.697Z" fill="#FCE891"/>
    <path d="M1370.53 742.697C1367.97 742.697 1365.9 740.753 1365.9 738.354C1365.9 735.956 1367.97 734.012 1370.53 734.012C1373.09 734.012 1375.17 735.956 1375.17 738.354C1375.17 740.753 1373.09 742.697 1370.53 742.697Z" fill="#FCE891"/>
    <path d="M1330.13 742.697C1327.57 742.697 1325.5 740.753 1325.5 738.354C1325.5 735.956 1327.57 734.012 1330.13 734.012C1332.69 734.012 1334.77 735.956 1334.77 738.354C1334.77 740.753 1332.69 742.697 1330.13 742.697Z" fill="#FCE891"/>
    <path d="M1289.78 742.697C1287.22 742.697 1285.15 740.753 1285.15 738.354C1285.15 735.956 1287.22 734.012 1289.78 734.012C1292.34 734.012 1294.42 735.956 1294.42 738.354C1294.42 740.753 1292.34 742.697 1289.78 742.697Z" fill="#FCE891"/>
    <path d="M1249.38 742.697C1246.82 742.697 1244.75 740.753 1244.75 738.354C1244.75 735.956 1246.82 734.012 1249.38 734.012C1251.94 734.012 1254.02 735.956 1254.02 738.354C1254.02 740.753 1251.94 742.697 1249.38 742.697Z" fill="#FCE891"/>
    <path d="M1209.03 742.697C1206.47 742.697 1204.4 740.753 1204.4 738.354C1204.4 735.956 1206.47 734.012 1209.03 734.012C1211.59 734.012 1213.67 735.956 1213.67 738.354C1213.67 740.753 1211.59 742.697 1209.03 742.697Z" fill="#FCE891"/>
    <path d="M1168.63 742.697C1166.07 742.697 1164 740.753 1164 738.354C1164 735.956 1166.07 734.012 1168.63 734.012C1171.19 734.012 1173.27 735.956 1173.27 738.354C1173.27 740.753 1171.19 742.697 1168.63 742.697Z" fill="#FCE891"/>
    <path d="M1451.28 780.556C1448.72 780.556 1446.65 778.612 1446.65 776.213C1446.65 773.815 1448.72 771.87 1451.28 771.87C1453.84 771.87 1455.91 773.815 1455.91 776.213C1455.91 778.612 1453.84 780.556 1451.28 780.556Z" fill="#FCE891"/>
    <path d="M1410.88 780.556C1408.32 780.556 1406.25 778.612 1406.25 776.213C1406.25 773.815 1408.32 771.87 1410.88 771.87C1413.44 771.87 1415.51 773.815 1415.51 776.213C1415.51 778.612 1413.44 780.556 1410.88 780.556Z" fill="#FCE891"/>
    <path d="M1370.53 780.556C1367.97 780.556 1365.9 778.612 1365.9 776.213C1365.9 773.815 1367.97 771.87 1370.53 771.87C1373.09 771.87 1375.17 773.815 1375.17 776.213C1375.17 778.612 1373.09 780.556 1370.53 780.556Z" fill="#FCE891"/>
    <path d="M1330.13 780.556C1327.57 780.556 1325.5 778.612 1325.5 776.213C1325.5 773.815 1327.57 771.87 1330.13 771.87C1332.69 771.87 1334.77 773.815 1334.77 776.213C1334.77 778.612 1332.69 780.556 1330.13 780.556Z" fill="#FCE891"/>
    <path d="M1289.78 780.556C1287.22 780.556 1285.15 778.612 1285.15 776.213C1285.15 773.815 1287.22 771.87 1289.78 771.87C1292.34 771.87 1294.42 773.815 1294.42 776.213C1294.42 778.612 1292.34 780.556 1289.78 780.556Z" fill="#FCE891"/>
    <path d="M1249.38 780.556C1246.82 780.556 1244.75 778.612 1244.75 776.213C1244.75 773.815 1246.82 771.87 1249.38 771.87C1251.94 771.87 1254.02 773.815 1254.02 776.213C1254.02 778.612 1251.94 780.556 1249.38 780.556Z" fill="#FCE891"/>
    <path d="M1209.03 780.556C1206.47 780.556 1204.4 778.612 1204.4 776.213C1204.4 773.815 1206.47 771.87 1209.03 771.87C1211.59 771.87 1213.67 773.815 1213.67 776.213C1213.67 778.612 1211.59 780.556 1209.03 780.556Z" fill="#FCE891"/>
    <path d="M1168.63 780.556C1166.07 780.556 1164 778.612 1164 776.213C1164 773.815 1166.07 771.87 1168.63 771.87C1171.19 771.87 1173.27 773.815 1173.27 776.213C1173.27 778.612 1171.19 780.556 1168.63 780.556Z" fill="#FCE891"/>
    <path d="M1451.28 818.368C1448.72 818.368 1446.65 816.424 1446.65 814.025C1446.65 811.626 1448.72 809.682 1451.28 809.682C1453.84 809.682 1455.91 811.626 1455.91 814.025C1455.91 816.424 1453.84 818.368 1451.28 818.368Z" fill="#FCE891"/>
    <path d="M1410.88 818.368C1408.32 818.368 1406.25 816.424 1406.25 814.025C1406.25 811.626 1408.32 809.682 1410.88 809.682C1413.44 809.682 1415.51 811.626 1415.51 814.025C1415.51 816.424 1413.44 818.368 1410.88 818.368Z" fill="#FCE891"/>
    <path d="M1370.53 818.368C1367.97 818.368 1365.9 816.424 1365.9 814.025C1365.9 811.626 1367.97 809.682 1370.53 809.682C1373.09 809.682 1375.17 811.626 1375.17 814.025C1375.17 816.424 1373.09 818.368 1370.53 818.368Z" fill="#FCE891"/>
    <path d="M1330.13 818.368C1327.57 818.368 1325.5 816.424 1325.5 814.025C1325.5 811.626 1327.57 809.682 1330.13 809.682C1332.69 809.682 1334.77 811.626 1334.77 814.025C1334.77 816.424 1332.69 818.368 1330.13 818.368Z" fill="#FCE891"/>
    <path d="M1289.78 818.368C1287.22 818.368 1285.15 816.424 1285.15 814.025C1285.15 811.626 1287.22 809.682 1289.78 809.682C1292.34 809.682 1294.42 811.626 1294.42 814.025C1294.42 816.424 1292.34 818.368 1289.78 818.368Z" fill="#FCE891"/>
    <path d="M1249.38 818.368C1246.82 818.368 1244.75 816.424 1244.75 814.025C1244.75 811.626 1246.82 809.682 1249.38 809.682C1251.94 809.682 1254.02 811.626 1254.02 814.025C1254.02 816.424 1251.94 818.368 1249.38 818.368Z" fill="#FCE891"/>
    <path d="M1209.03 818.368C1206.47 818.368 1204.4 816.424 1204.4 814.025C1204.4 811.626 1206.47 809.682 1209.03 809.682C1211.59 809.682 1213.67 811.626 1213.67 814.025C1213.67 816.424 1211.59 818.368 1209.03 818.368Z" fill="#FCE891"/>
    <path d="M1168.63 818.368C1166.07 818.368 1164 816.424 1164 814.025C1164 811.626 1166.07 809.682 1168.63 809.682C1171.19 809.682 1173.27 811.626 1173.27 814.025C1173.27 816.424 1171.19 818.368 1168.63 818.368Z" fill="#FCE891"/>
    <path d="M432 9H164H432Z" stroke="#FBA036" stroke-width="7.17359" stroke-miterlimit="10"/>
    <path d="M997.46 700.304H1075.74V710.783H997.46V700.304Z" fill="#68C8BF"/>
    <path d="M791 658H869.28V668.48H791V658Z" fill="#FBDE56"/>
    </svg>
    