<?xml version="1.0" encoding="UTF-8"?>
<svg id="Layer_1" data-name="Layer 1" xmlns="http://www.w3.org/2000/svg" viewBox="0 0 479.63 479.85">
  <defs>
    <style>
      .cls-1 {
        fill: #fff;
      }
    </style>
  </defs>
  <path class="cls-1" d="m231.9,260.75v-.23c-.01.08-.01.16,0,.23Z"/>
  <path class="cls-1" d="m231.66,267.97v-.28c.02.14.01.28,0,.28Z"/>
  <path class="cls-1" d="m0,238.99c.08,67.78,55.01,122.71,122.79,122.79,66.12,0,120.13-52.5,122.67-117.99-1.63.06-3.2.13-4.8.13-2.1,0-4.18-.05-6.25-.16-2.63,61.65-54.74,109.49-116.39,106.87-61.65-2.63-109.49-54.74-106.87-116.39"/>
  <path class="cls-1" d="m11.15,234.24c2.47-57.97,48.91-104.4,106.88-106.87-.11-2.07-.16-4.15-.16-6.25,0-1.61.06-3.21.12-4.8C52.47,118.86,0,172.9,0,238.99"/>
  <path class="cls-1" d="m234.19,240.65c0-2.1.05-4.18.16-6.25-61.64-2.74-109.4-54.93-106.66-116.57,2.65-59.64,51.72-106.66,111.42-106.77,60.01,0,109.11,47.71,111.62,107.12,2.07-.11,4.15-.16,6.25-.16,1.61,0,3.21.06,4.8.12C359.25,52.64,305.22,0,239.11,0c-67.77.08-122.7,55-122.78,122.78,0,66.12,52.5,120.13,117.99,122.67-.07-1.59-.13-3.19-.13-4.8Z"/>
  <path class="cls-1" d="m245.34,245.38c-3.62.9-7.4.9-11.02,0-.97-3.61-.97-7.41,0-11.02,3.57-1.25,7.45-1.25,11.02,0,1.4,3.54,1.4,7.48,0,11.02Z"/>
  <path class="cls-1" d="m247.73,218.99v.23c.01-.07.01-.15,0-.23Z"/>
  <path class="cls-1" d="m247.97,211.73v.28c-.02-.1-.01-.15,0-.28Z"/>
  <path class="cls-1" d="m238.97,235.84c2.09,0,4.18.08,6.25.19,2.61-61.65,54.7-109.51,116.35-106.91,61.65,2.61,109.51,54.7,106.91,116.35-2.45,57.99-48.89,104.44-106.88,106.91.11,2.07.16,4.15.16,6.25,0,1.61-.06,3.21-.12,4.8,65.49-2.53,117.99-56.56,117.99-122.67-.08-67.78-55.01-122.71-122.79-122.79-66.12,0-120.13,52.5-122.67,117.99,1.63-.05,3.2-.12,4.8-.12Z"/>
  <path class="cls-1" d="m240.56,479.85c67.78-.08,122.71-55.02,122.78-122.8,0-66.12-52.5-120.13-117.99-122.67.06,1.59.12,3.19.12,4.8,0,2.1-.05,4.18-.16,6.25,61.65,2.61,109.51,54.71,106.9,116.36-2.53,59.82-51.78,107.01-111.66,107-60.01,0-109.11-47.79-111.62-107.2-2.07.1-4.01.19-6.14.19-1.61,0-3.31-.09-4.9-.15,2.53,65.49,56.56,118.22,122.67,118.22"/>
  <path class="cls-1" d="m262.93,8.96l-.06,3.12c-24.81-.45-48.76,16.38-55.68,39.16-8.75,28.69,4.49,54.85,33.72,66.64,18.88,7.44,32.71,21.04,38.91,38.29l-9.43,3.39c-5.28-14.7-16.76-25.89-33.19-32.37-33.91-13.68-49.8-45.37-39.59-78.87,6.49-21.38,24.74-37.94,46.55-43.88"/>
  <path class="cls-1" d="m471.18,267.78l-3.32-.06c.45-24.82-16.38-48.76-39.16-55.68-28.7-8.72-54.86,4.52-66.64,33.73-6.77,17.18-18.26,29.92-33.2,36.82l-4.2-9.1c12.56-5.8,22.27-16.67,28.1-31.43,7.02-17.41,18.58-30.23,33.43-37.1,13.72-6.35,29.86-7.24,45.43-2.51,22.42,6.81,39.55,26.55,44.68,49.77"/>
  <path class="cls-1" d="m216.02,474.83l.12-6.82c24.84.47,48.76-16.38,55.68-39.16,8.72-28.7-4.52-54.86-33.73-66.64-18.34-7.23-32-20.36-38.4-36.95l9.35-3.61c5.47,14.16,16.8,24.96,32.77,31.26,17.41,7.03,30.23,18.58,37.1,33.43,6.35,13.72,7.24,29.86,2.51,45.43-6.11,20.13-22.65,35.99-42.76,42.74"/>
  <path class="cls-1" d="m11.82,214.17c-.45,24.82,16.38,48.76,39.16,55.68,28.7,8.72,54.86-4.52,66.64-33.73,6.77-17.18,18.26-29.92,33.2-36.82l4.2,9.1c-12.56,5.8-22.27,16.67-28.1,31.43-7.03,17.41-18.58,30.23-33.43,37.1-7.91,3.66-16.63,5.5-25.57,5.5-6.57,0-13.26-1-19.86-3-22.78-6.92-40.08-27.17-44.91-50.87"/>
</svg>